<svg width="56" height="56" viewBox="0 0 56 56" fill="none" xmlns="http://www.w3.org/2000/svg">
<rect width="56" height="56" rx="28" fill="white"/>
<path d="M20.65 17.5C20.4334 17.5 20.2257 17.586 20.0725 17.7392C19.9194 17.8924 19.8333 18.1001 19.8333 18.3167V37.6833C19.8333 37.8999 19.9194 38.1076 20.0725 38.2608C20.2257 38.414 20.4334 38.5 20.65 38.5H23.6833C23.8999 38.5 24.1076 38.414 24.2608 38.2608C24.4139 38.1076 24.5 37.8999 24.5 37.6833V18.3167C24.5 18.1001 24.4139 17.8924 24.2608 17.7392C24.1076 17.586 23.8999 17.5 23.6833 17.5H20.65ZM32.3166 17.5C32.1001 17.5 31.8923 17.586 31.7392 17.7392C31.586 17.8924 31.5 18.1001 31.5 18.3167V37.6833C31.5 37.8999 31.586 38.1076 31.7392 38.2608C31.8923 38.414 32.1001 38.5 32.3166 38.5H35.35C35.5666 38.5 35.7743 38.414 35.9275 38.2608C36.0806 38.1076 36.1666 37.8999 36.1666 37.6833V18.3167C36.1666 18.1001 36.0806 17.8924 35.9275 17.7392C35.7743 17.586 35.5666 17.5 35.35 17.5H32.3166Z" fill="#191919"/>
</svg>
