<svg width="39" height="38" viewBox="0 0 39 38" fill="none" xmlns="http://www.w3.org/2000/svg">
<rect x="0.580017" y="0.195557" width="37.84" height="37.6089" rx="18.8044" fill="#7D7A7A"/>
<path d="M10.81 17.264L9.10609 18.9527L8.63307 19.4215C8.39216 19.6602 7.99787 19.6602 7.75696 19.4215L7.05978 20.125L7.75696 19.4215C7.52104 19.1877 7.52104 18.8123 7.75696 18.5785L7.05304 17.8682L7.75696 18.5785L19.062 7.37462C19.3029 7.13587 19.6972 7.13587 19.9381 7.37462L31.2431 18.5785C31.479 18.8123 31.479 19.1877 31.2431 19.4215C31.0022 19.6602 30.6079 19.6602 30.367 19.4215L29.8939 18.9527L28.19 17.264V19.663V30.2039C28.19 30.5271 27.9232 30.8044 27.575 30.8044H24.345C23.9969 30.8044 23.73 30.5271 23.73 30.2039V27.0028C23.73 25.5581 22.5508 24.4022 21.115 24.4022H17.885C16.4493 24.4022 15.27 25.5581 15.27 27.0028V30.2039C15.27 30.5271 15.0032 30.8044 14.655 30.8044H11.425C11.0769 30.8044 10.81 30.5271 10.81 30.2039V19.663V17.264Z" stroke="#782279" stroke-width="2"/>
</svg>
