<svg width="25" height="24" viewBox="0 0 25 24" fill="none" xmlns="http://www.w3.org/2000/svg">
<path d="M6.03964 2.05426C7.14348 1.70411 8.32143 1.65611 9.45025 1.91529C10.5791 2.17447 11.6173 2.7313 12.4563 3.52753C12.478 3.54684 12.5061 3.5575 12.5352 3.5575C12.5643 3.5575 12.5924 3.54684 12.6141 3.52753C13.3326 2.84402 14.1999 2.33522 15.1481 2.04079C16.0964 1.74637 17.1 1.67429 18.0808 1.83017L18.0847 1.83112C19.3904 2.04411 20.6 2.64889 21.5522 3.56481C22.5043 4.48073 23.1536 5.66426 23.4137 6.95754V6.9604C23.6012 7.90815 23.5704 8.88599 23.3235 9.82013C23.0766 10.7543 22.6201 11.6203 21.9884 12.3529L14.3799 21.3928C14.1538 21.6612 13.8715 21.8771 13.5528 22.0252C13.2341 22.1733 12.8868 22.25 12.5352 22.25C12.1836 22.25 11.8362 22.1733 11.5175 22.0252C11.1988 21.8771 10.9165 21.6612 10.6904 21.3928L3.08386 12.3529C2.45117 11.6207 1.99381 10.7546 1.74638 9.8202C1.49896 8.88581 1.46796 7.90755 1.65571 6.95945C1.87792 5.82502 2.40215 4.77106 3.17345 3.90804C3.94476 3.04502 4.93474 2.40472 6.03964 2.05426ZM9.02411 3.77356C8.42898 3.63649 7.81226 3.62027 7.2107 3.72586C6.60915 3.83145 6.03508 4.05669 5.5227 4.38816C5.01033 4.71963 4.57014 5.15054 4.22838 5.6552C3.88662 6.15987 3.65028 6.72796 3.53345 7.32562L3.53249 7.32753C3.40049 7.99293 3.42225 8.67956 3.59611 9.33532C3.76997 9.99109 4.09137 10.5988 4.53592 11.1123L4.54453 11.1218L12.1569 20.1665C12.2034 20.2211 12.2613 20.265 12.3265 20.2951C12.3918 20.3253 12.4628 20.3409 12.5347 20.3409C12.6066 20.3409 12.6776 20.3253 12.7429 20.2951C12.8081 20.265 12.866 20.2211 12.9125 20.1665L20.5344 11.1123C20.9782 10.5991 21.2991 9.99201 21.4729 9.337C21.6467 8.68199 21.669 7.99616 21.5379 7.33134C21.3541 6.41886 20.8958 5.58386 20.224 4.93754C19.5522 4.29121 18.6989 3.86424 17.7776 3.71348C17.087 3.60373 16.3802 3.65474 15.7126 3.86251C15.045 4.07029 14.4347 4.42919 13.9294 4.91117L13.9217 4.9188C13.5455 5.26946 13.0497 5.46454 12.5347 5.46454C12.0197 5.46454 11.5239 5.26946 11.1477 4.9188L11.141 4.91212C10.5503 4.35004 9.81975 3.95677 9.02411 3.77356Z" fill="white"/>
</svg>
