<svg width="29" height="28" viewBox="0 0 29 28" fill="none" xmlns="http://www.w3.org/2000/svg">
<g clip-path="url(#clip0_18_85)">
<path d="M12.9522 19.0332C14.3497 19.0332 15.6592 18.6113 16.7491 17.8906L20.5987 21.749C20.8536 21.9951 21.1788 22.1182 21.5303 22.1182C22.2598 22.1182 22.796 21.5469 22.796 20.8262C22.796 20.4922 22.6817 20.167 22.4356 19.9209L18.6124 16.0801C19.4034 14.9551 19.8692 13.5928 19.8692 12.1162C19.8692 8.31055 16.7579 5.19922 12.9522 5.19922C9.15533 5.19922 6.03522 8.31055 6.03522 12.1162C6.03522 15.9219 9.14655 19.0332 12.9522 19.0332ZM12.9522 17.1875C10.1661 17.1875 7.88092 14.9023 7.88092 12.1162C7.88092 9.33008 10.1661 7.04492 12.9522 7.04492C15.7383 7.04492 18.0235 9.33008 18.0235 12.1162C18.0235 14.9023 15.7383 17.1875 12.9522 17.1875Z" fill="#782279"/>
</g>
<defs>
<clipPath id="clip0_18_85">
<rect width="28" height="28" fill="white" transform="translate(0.419983)"/>
</clipPath>
</defs>
</svg>
