<svg width="24" height="24" viewBox="0 0 24 24" fill="none" xmlns="http://www.w3.org/2000/svg">
<path d="M19.05 1.5C18.7715 1.5 18.5045 1.61062 18.3075 1.80754C18.1106 2.00445 18 2.27152 18 2.55V10.275L3.075 1.6605C2.91551 1.56842 2.73462 1.51991 2.55046 1.51983C2.3663 1.51975 2.18536 1.5681 2.02579 1.66004C1.86622 1.75198 1.73365 1.88427 1.64136 2.04364C1.54907 2.20301 1.50032 2.38384 1.5 2.568V21.4305C1.49979 21.6149 1.54816 21.7961 1.64023 21.9559C1.73231 22.1157 1.86484 22.2484 2.02449 22.3407C2.18415 22.433 2.36529 22.4816 2.54971 22.4817C2.73412 22.4817 2.91529 22.4332 3.075 22.341L18 13.7235V21.45C18 21.7285 18.1106 21.9955 18.3075 22.1925C18.5045 22.3894 18.7715 22.5 19.05 22.5H21.45C21.7285 22.5 21.9955 22.3894 22.1925 22.1925C22.3894 21.9955 22.5 21.7285 22.5 21.45V2.55C22.5 2.27152 22.3894 2.00445 22.1925 1.80754C21.9955 1.61062 21.7285 1.5 21.45 1.5H19.05Z" fill="white"/>
</svg>
