<svg width="21" height="22" viewBox="0 0 21 22" fill="none" xmlns="http://www.w3.org/2000/svg">
<path d="M3.45 0.5C3.72848 0.5 3.99555 0.610625 4.19246 0.807538C4.38938 1.00445 4.5 1.27152 4.5 1.55V9.275L19.425 0.659C19.5846 0.566857 19.7656 0.518341 19.9499 0.518327C20.1342 0.518312 20.3152 0.5668 20.4749 0.658918C20.6345 0.751036 20.767 0.88354 20.8592 1.04311C20.9514 1.20269 20.9999 1.38371 21 1.568V20.4305C21.0002 20.6149 20.9518 20.7961 20.8598 20.9559C20.7677 21.1157 20.6352 21.2484 20.4755 21.3407C20.3159 21.433 20.1347 21.4816 19.9503 21.4817C19.7659 21.4817 19.5847 21.4332 19.425 21.341L4.5 12.7235V20.45C4.5 20.7285 4.38938 20.9955 4.19246 21.1925C3.99555 21.3894 3.72848 21.5 3.45 21.5H1.05C0.771523 21.5 0.504451 21.3894 0.307538 21.1925C0.110625 20.9955 0 20.7285 0 20.45V1.55C0 1.27152 0.110625 1.00445 0.307538 0.807538C0.504451 0.610625 0.771523 0.5 1.05 0.5H3.45Z" fill="white"/>
</svg>
